<svg width="29" height="28" viewBox="0 0 29 28" fill="none" xmlns="http://www.w3.org/2000/svg">
<g clip-path="url(#clip0_310_556)">
<path d="M22.1826 17.3988C20.9542 17.3988 19.7533 17.0417 18.7319 16.3726C17.7105 15.7034 16.9144 14.7524 16.4443 13.6397C15.9742 12.5269 15.8512 11.3025 16.0908 10.1213C16.3305 8.94001 16.922 7.85496 17.7907 7.00332C18.6593 6.15168 19.766 5.57171 20.9709 5.33674C22.1757 5.10177 23.4246 5.22237 24.5595 5.68327C25.6945 6.14417 26.6645 6.92469 27.347 7.92611C28.0295 8.92753 28.3938 10.1049 28.3938 11.3093L28.4221 12.1792C28.4221 13.7786 28.1008 15.3623 27.4766 16.84C26.8523 18.3176 25.9373 19.6602 24.7838 20.7912C23.6302 21.9221 22.2608 22.8192 20.7537 23.4312C19.2465 24.0433 17.6312 24.3583 15.9999 24.3583V20.8786C17.1656 20.8817 18.3204 20.6581 19.3975 20.2209C20.4746 19.7837 21.4526 19.1415 22.2749 18.3314C22.5945 18.0186 22.8894 17.6825 23.1569 17.3258C22.8346 17.3754 22.5089 17.4004 22.1826 17.4006V17.3988ZM6.21114 17.3988C4.98269 17.3988 3.78183 17.0417 2.76042 16.3726C1.739 15.7034 0.942903 14.7524 0.472797 13.6397C0.00269123 12.5269 -0.12031 11.3025 0.119348 10.1213C0.359006 8.94001 0.950559 7.85496 1.8192 7.00332C2.68784 6.15168 3.79456 5.57171 4.9994 5.33674C6.20425 5.10177 7.4531 5.22237 8.58803 5.68327C9.72297 6.14417 10.693 6.92469 11.3755 7.92611C12.058 8.92753 12.4223 10.1049 12.4223 11.3093L12.4507 12.1792C12.4507 15.4093 11.1419 18.5071 8.81226 20.7912C6.48264 23.0752 3.32299 24.3583 0.0283965 24.3583V20.8786C1.19413 20.8817 2.34893 20.6581 3.426 20.2209C4.50308 19.7837 5.48107 19.1415 6.30342 18.3314C6.62303 18.0186 6.91788 17.6825 7.1854 17.3258C6.86311 17.3754 6.53738 17.4004 6.21114 17.4006V17.3988Z" fill="#A4161A"/>
</g>
<defs>
<clipPath id="clip0_310_556">
<rect width="28.3937" height="27.838" fill="white"/>
</clipPath>
</defs>
</svg>
