<svg width="209" height="40" viewBox="0 0 209 40" fill="none" xmlns="http://www.w3.org/2000/svg">
<rect x="198.23" y="0.5" width="10" height="10" rx="5" stroke="#A4161A"/>
<path d="M201.17 8.5V2.68182H203.574C204.009 2.68182 204.385 2.76042 204.702 2.91761C205.02 3.07292 205.265 3.2964 205.437 3.58807C205.61 3.87784 205.696 4.22159 205.696 4.61932C205.696 5.02273 205.608 5.36553 205.432 5.64773C205.256 5.92803 205.006 6.14205 204.682 6.28977C204.358 6.43561 203.974 6.50852 203.531 6.50852H202.011V5.40057H203.27C203.482 5.40057 203.659 5.37311 203.801 5.31818C203.945 5.26136 204.054 5.17614 204.128 5.0625C204.202 4.94697 204.239 4.79924 204.239 4.61932C204.239 4.43939 204.202 4.29072 204.128 4.1733C204.054 4.05398 203.945 3.96496 203.801 3.90625C203.657 3.84564 203.48 3.81534 203.27 3.81534H202.577V8.5H201.17ZM204.446 5.84091L205.895 8.5H204.361L202.94 5.84091H204.446Z" fill="#A4161A"/>
<path d="M14.1855 26.0211L19.7111 25.9264C19.8504 25.9264 19.9653 26.0457 20.0558 26.2843C20.1533 26.5229 20.2473 26.7124 20.3378 26.8527C20.5537 27.1896 20.9088 27.358 21.4032 27.358C21.9046 27.358 22.3085 27.2422 22.6149 27.0106C22.9213 26.772 23.0745 26.4668 23.0745 26.0948C23.0745 25.7229 22.9805 25.4703 22.7925 25.3369C22.6044 25.1966 22.399 25.0632 22.1762 24.9369C21.9534 24.8036 21.6226 24.7018 21.1839 24.6317C20.7521 24.5615 20.5154 24.5194 20.4736 24.5054H20.4945L19.8991 24.3475C19.5161 24.2773 19.1958 24.2001 18.9381 24.1159C17.2738 23.6668 16.0691 23.1019 15.324 22.4212C14.5859 21.7405 14.2168 20.8247 14.2168 19.6738C14.2168 18.8387 14.37 18.0879 14.6764 17.4212C14.9828 16.7545 15.3832 16.2107 15.8776 15.7896C17.3052 14.5756 19.2759 13.9686 21.7897 13.9686C23.7883 13.9686 25.3586 14.3335 26.5006 15.0633H26.4901C27.2212 15.5966 27.7226 16.1229 27.9942 16.6422C28.2658 17.1545 28.4364 17.7896 28.506 18.5475L28.2344 18.8212C26.403 18.8914 24.7805 18.9265 23.3669 18.9265C22.9421 18.9265 22.688 18.8002 22.6044 18.5476C22.5696 18.4423 22.5313 18.337 22.4895 18.2318C22.392 17.9791 22.0786 17.8528 21.5494 17.8528H21.5076C21.0968 17.8528 20.7451 17.9511 20.4527 18.1476C20.1602 18.337 20.0105 18.523 20.0035 18.7055C20.0035 18.8879 20.0418 19.0388 20.1184 19.1581C20.202 19.2775 20.289 19.3722 20.3795 19.4423C20.4701 19.5125 20.6093 19.5862 20.7973 19.6634C20.9854 19.7336 21.1246 19.7827 21.2152 19.8106C21.3127 19.8317 21.4624 19.8703 21.6643 19.9263L22.0299 20.0211C22.1761 20.0631 22.6009 20.1684 23.3042 20.3368C24.0145 20.5053 24.6064 20.6667 25.0799 20.8211V20.8109C26.5632 21.3161 27.5729 21.9477 28.1091 22.7056C28.6523 23.4565 28.9238 24.3337 28.9238 25.3372C28.9238 28.0109 27.3396 29.7442 24.1712 30.5372C23.252 30.7688 22.2701 30.9337 21.2256 31.0319C19.9443 31.0319 18.6769 30.8425 17.4235 30.4635C16.17 30.0846 15.3309 29.467 14.9062 28.6109C14.6206 28.1969 14.4291 27.8179 14.3316 27.474C14.2342 27.1232 14.1541 26.6354 14.0914 26.0109C14.1123 26.0177 14.1437 26.0211 14.1855 26.0211Z" fill="#A4161A"/>
<path d="M30.2609 23.4106L30.2818 19.0843V14.6948C30.2957 14.688 30.3619 14.6846 30.4803 14.6846H30.8667C31.013 14.6846 31.1244 14.6776 31.201 14.6636L32.4962 14.6111C32.8305 14.5971 33.0881 14.5901 33.2692 14.5901H34.93L38.0009 14.5163C38.4188 14.5163 38.8783 14.5339 39.3797 14.5689H39.4528C39.6896 14.5549 39.8393 14.5479 39.902 14.5479C41.2947 14.5479 42.4855 14.9936 43.4743 15.8848C43.9548 16.3129 44.3343 16.8637 44.6129 17.5374C44.8914 18.2111 45.0307 18.9093 45.0307 19.6321C45.0307 20.3479 44.9575 20.9585 44.8113 21.4637C44.6651 21.969 44.4771 22.3971 44.2473 22.7479C43.3281 24.1655 41.5489 24.9936 38.9097 25.2322L36.6535 25.3269C36.5838 27.0111 36.549 28.3199 36.549 29.2532L36.5595 29.5795V30.4322C36.5317 30.5303 36.4794 30.597 36.4029 30.6322L30.4385 30.7269C30.3202 30.3901 30.261 29.8497 30.261 29.1059L30.2609 23.4106ZM39.4006 18.8948C39.1221 18.158 38.3839 17.765 37.1862 17.7158C37.0121 17.7091 36.7719 17.7057 36.4655 17.7057C36.3819 17.7057 36.3297 18.7407 36.3088 20.8109L36.2879 21.6004L36.3192 22.232C37.1757 22.218 37.9278 22.0355 38.5754 21.6846C39.23 21.3337 39.5573 20.6951 39.5573 19.7688C39.5573 19.3758 39.5051 19.0843 39.4006 18.8948Z" fill="#A4161A"/>
<path d="M61.127 30.4843C61.12 30.5756 60.9285 30.6212 60.5525 30.6212H59.5915L58.9439 30.6314H58.3067L57.2935 30.6416C56.2838 30.6416 55.4447 30.617 54.7762 30.5679C54.7553 30.5611 54.7309 30.5189 54.7031 30.4415L54.6509 30.2205C54.5882 29.4977 54.4246 28.7994 54.1599 28.1258L49.6893 28.1679C49.6615 28.2873 49.5709 28.6417 49.4177 29.2311C49.2645 29.8206 49.1496 30.2662 49.073 30.5679C49.0034 30.6381 48.6726 30.6732 48.0807 30.6732L47.8196 30.6631H47.2138L44.498 30.7262H44.1846L43.8921 30.7364H43.161C43.1122 30.6872 43.06 30.6241 43.0043 30.5469C43.7006 28.1189 44.6442 25.1083 45.835 21.5153L46.0752 20.768H46.0647L46.3467 19.8943C46.4373 19.6136 46.6949 18.8346 47.1197 17.5574C47.5514 16.2802 47.8195 15.4557 47.924 15.0838C48.0354 14.7118 48.1016 14.5188 48.1225 14.5048H49.8564L53.5645 14.4522L54.5673 14.5048L55.3924 14.4522C55.8103 14.4522 56.0192 14.5365 56.0192 14.7049C56.7155 16.6628 57.6452 19.4803 58.8081 23.1575C59.971 26.8347 60.6256 28.9014 60.7718 29.3576L60.9181 29.8839C60.9668 30.0733 61.0365 30.2738 61.127 30.4843ZM50.7861 24.7369L51.2143 24.7471L53.7108 24.7369C53.6063 23.9018 53.5263 23.2878 53.4705 22.8948L53.0736 21.0948C52.6558 19.2351 52.4399 18.2878 52.426 18.2527C52.4121 18.2177 52.3982 18.1861 52.3842 18.158C52.3772 18.1229 52.3702 18.1019 52.3633 18.0948C52.3563 18.0809 52.3459 18.0598 52.332 18.0317C52.325 18.0036 52.3145 17.9861 52.3007 17.9791C52.2937 17.9651 52.2832 17.9476 52.2693 17.9266C52.2206 17.8424 52.1196 17.7687 51.9664 17.7055C51.7784 17.7476 51.2178 19.8599 50.2847 24.0424L50.1698 24.7371L50.7861 24.7369Z" fill="#A4161A"/>
<path d="M66.3601 14.5369L69.7131 14.5053C70.4234 14.5053 71.0675 14.5194 71.6455 14.5475C73.1984 14.5896 74.3787 14.958 75.1865 15.6527C76.0012 16.3475 76.4086 17.3264 76.4086 18.5896C76.4086 19.4668 76.1544 20.2177 75.6461 20.8422C75.1377 21.4598 74.3961 22.0036 73.4212 22.4738C74.9671 22.965 75.9037 24.158 76.231 26.0528C76.3075 26.4668 76.3667 26.9405 76.4087 27.4738C76.4574 28.0071 76.4957 28.365 76.5235 28.5475L76.628 29.0843C76.7394 29.7159 76.8369 30.1721 76.9205 30.4528L76.8786 30.4843C75.6948 30.5615 74.612 30.6 73.6301 30.6C72.6552 30.6 71.7917 30.5825 71.0396 30.5475H70.977C70.7611 30.5475 70.5313 29.5124 70.2876 27.4422L70.2354 26.9896C70.2075 26.2176 70.0717 25.6983 69.8281 25.4317C69.5913 25.165 69.1769 25.0317 68.585 25.0317L68.4492 25.0419H67.8956V28.2419L67.9057 28.5787V30.505C67.8848 30.5752 67.8326 30.6174 67.7491 30.6314C66.9831 30.6595 65.9002 30.6735 64.5006 30.6735C63.1078 30.6735 62.1887 30.6769 61.743 30.6837L61.6803 30.6627L61.6594 30.6729C61.6455 30.6729 61.6246 30.6624 61.5967 30.6413L61.6176 29.694L61.6071 29.3782L61.6489 25.0097V24.2413L61.6594 23.4518L61.6699 20.7255L61.6804 20.3676L61.6491 17.9781C61.6491 17.9781 61.663 16.8588 61.6909 14.6202C61.6909 14.5642 61.8893 14.5361 62.2863 14.5361L62.9548 14.5463H63.5919L64.9185 14.5565L66.3601 14.5369ZM76.9831 30.4211L76.9309 30.4527V30.4317C76.9309 30.4249 76.9483 30.4211 76.9831 30.4211ZM76.9309 30.4527V30.4629C76.9242 30.4629 76.9205 30.4595 76.9205 30.4528L76.9309 30.4527ZM70.225 17.9685C69.8071 17.786 69.2501 17.6948 68.5537 17.6948H67.9479C67.8713 17.8071 67.8331 18.4001 67.8331 19.4737C67.8331 20.5404 67.8505 21.2562 67.8852 21.6211C70.0648 21.5719 71.1546 20.814 71.1546 19.3474C71.1546 18.7228 70.8447 18.2632 70.225 17.9685Z" fill="#A4161A"/>
<path d="M78.0276 16.0527L77.9963 15.1474C77.9963 14.7614 78.0346 14.5228 78.1111 14.4316C78.2991 14.4248 78.6542 14.4214 79.1765 14.4214C79.7058 14.4214 80.1619 14.4248 80.5449 14.4316L82.0177 14.4526C82.2893 14.4316 82.6827 14.421 83.198 14.421C83.7133 14.421 84.0406 14.4912 84.1799 14.6315C84.1451 16.3438 84.1277 18.3789 84.1277 20.7368L84.4933 20.8C84.5977 20.5263 84.7858 20.1158 85.0574 19.5684C85.3359 19.021 85.4961 18.7017 85.5378 18.6105L85.6527 18.3578C85.6805 18.2947 85.8059 18.0245 86.0287 17.5473C86.2585 17.0631 86.4918 16.5228 86.7285 15.9263C86.9653 15.3228 87.2195 14.8491 87.4911 14.5052C87.9785 14.4984 88.5704 14.495 89.2667 14.495C89.9701 14.495 90.7883 14.5091 91.7214 14.5372C92.6545 14.5583 93.3544 14.5688 93.8209 14.5688C91.8363 18.1828 90.4262 20.6846 89.5906 22.074L89.8308 22.4635C90.1163 22.8214 90.7396 23.8425 91.7005 25.5267C92.6615 27.2109 93.3579 28.4074 93.7896 29.1162L94.0403 29.5267C94.3467 30.039 94.4999 30.3302 94.4999 30.4004C94.4999 30.4706 94.479 30.5337 94.4372 30.5898H94.3746C93.9846 30.5758 93.6678 30.5688 93.424 30.5688C93.1873 30.5688 92.8739 30.5758 92.484 30.5898H87.794C86.7216 28.5688 85.6074 26.3758 84.4515 24.0109C84.3958 24.5723 84.3122 25.8986 84.2008 27.9898V28.1267L84.2216 30.5162C84.138 30.6425 83.7724 30.7056 83.1248 30.7056L82.9055 30.6954H82.3414L79.3854 30.7164H78.4244C78.2294 30.7164 78.0901 30.6427 78.0066 30.4954L77.9753 30.4638V28.8638L77.9961 27.2112V21.2638L78.0276 16.0527Z" fill="#A4161A"/>
<path d="M110.001 14.5053L110.346 14.4951C110.415 14.5302 110.467 14.6179 110.502 14.7583L110.189 15.3793V15.3692L109.51 16.685C108.486 18.5937 107.825 19.8674 107.525 20.506L107.17 21.1902C106.787 21.9341 106.136 23.2464 105.217 25.1271C105.203 25.3657 105.196 25.7236 105.196 26.2008V30.5482C105.161 30.6605 105.092 30.7166 104.987 30.7166L99.002 30.7588C98.8488 30.5623 98.7722 30.3377 98.7722 30.0851L98.793 28.7693V28.464L98.8031 28.1483L98.8132 27.3798C98.8132 25.9132 98.4406 24.3412 97.6955 22.664C97.5354 22.3131 97.3021 21.8184 96.9957 21.1798L95.4393 18.043C95.3976 17.9658 95.2862 17.7518 95.1051 17.4009C94.924 17.05 94.7256 16.671 94.5097 16.264V16.2742C93.9526 15.418 93.6741 14.8496 93.6741 14.5689C93.6741 14.5339 93.7855 14.5164 94.0083 14.5164H96.6928C98.176 14.5164 99.2937 14.5269 100.046 14.5479C100.269 14.59 100.85 16.2778 101.79 19.6111L102.26 21.2848C102.97 19.376 103.719 17.1374 104.506 14.569C104.513 14.5129 105.028 14.4848 106.052 14.4848H107.389C107.709 14.4848 107.977 14.4918 108.193 14.5058L110.001 14.5053Z" fill="#A4161A"/>
<path d="M118.065 26.0211L123.59 25.9264C123.73 25.9264 123.844 26.0457 123.935 26.2843C124.032 26.5229 124.126 26.7124 124.217 26.8527C124.433 27.1896 124.788 27.358 125.282 27.358C125.784 27.358 126.188 27.2422 126.494 27.0106C126.801 26.772 126.954 26.4668 126.954 26.0948C126.954 25.7229 126.86 25.4703 126.672 25.3369C126.484 25.1966 126.278 25.0632 126.055 24.9369C125.833 24.8036 125.502 24.7018 125.063 24.6317C124.631 24.5615 124.395 24.5194 124.353 24.5054H124.374L123.778 24.3475C123.395 24.2773 123.075 24.2001 122.817 24.1159C121.153 23.6668 119.948 23.1019 119.203 22.4212C118.465 21.7405 118.096 20.8247 118.096 19.6738C118.096 18.8387 118.249 18.0879 118.556 17.4212C118.862 16.7545 119.262 16.2107 119.757 15.7896C121.184 14.5756 123.155 13.9686 125.669 13.9686C127.667 13.9686 129.238 14.3335 130.38 15.0633H130.37C131.101 15.5966 131.602 16.1229 131.874 16.6422C132.145 17.1545 132.316 17.7896 132.386 18.5475L132.114 18.8212C130.283 18.8914 128.66 18.9265 127.246 18.9265C126.822 18.9265 126.568 18.8002 126.484 18.5476C126.449 18.4423 126.411 18.337 126.369 18.2318C126.272 17.9791 125.958 17.8528 125.429 17.8528H125.387C124.976 17.8528 124.625 17.9511 124.332 18.1476C124.04 18.337 123.89 18.523 123.883 18.7055C123.883 18.8879 123.921 19.0388 123.998 19.1581C124.081 19.2775 124.169 19.3722 124.259 19.4423C124.35 19.5125 124.489 19.5862 124.677 19.6634C124.865 19.7336 125.004 19.7827 125.095 19.8106C125.192 19.8317 125.342 19.8703 125.544 19.9263L125.909 20.0211C126.056 20.0631 126.48 20.1684 127.184 20.3368C127.894 20.5053 128.486 20.6667 128.959 20.8211V20.8109C130.443 21.3161 131.452 21.9477 131.989 22.7056C132.532 23.4565 132.803 24.3337 132.803 25.3372C132.803 28.0109 131.219 29.7442 128.051 30.5372C127.132 30.7688 126.15 30.9337 125.105 31.0319C123.824 31.0319 122.556 30.8425 121.303 30.4635C120.05 30.0846 119.21 29.467 118.786 28.6109C118.5 28.1969 118.309 27.8179 118.211 27.474C118.114 27.1232 118.034 26.6354 117.971 26.0109C117.992 26.0177 118.023 26.0211 118.065 26.0211Z" fill="#A4161A"/>
<path d="M149.255 26.7685L149.245 28.0211C149.245 28.5475 149.251 29.379 149.265 30.5159C149.168 30.6492 148.395 30.7159 146.946 30.7159C145.498 30.7159 144.203 30.6948 143.061 30.6528C143.047 30.6388 142.981 30.5511 142.862 30.3896V28.7054L142.883 25.4738C142.883 25.158 142.848 24.972 142.779 24.9159C142.709 24.8598 142.497 24.8318 142.141 24.8318H141.995C141.334 24.8318 140.811 24.8633 140.428 24.9265V26.4002L140.407 30.4739C140.303 30.5862 139.429 30.6423 137.786 30.6423H137.284C135.864 30.6423 134.83 30.6213 134.182 30.5792C134.05 30.5371 133.984 30.0388 133.984 29.0845L134.046 26.7581L134.151 17.3265V16.8213C134.157 16.716 134.161 16.3511 134.161 15.7265C134.161 15.0949 134.199 14.6949 134.276 14.5265H134.328C134.787 14.5405 135.125 14.5475 135.341 14.5475H136.511L137.775 14.5265H138.172C139.355 14.5265 140.045 14.6633 140.24 14.937C140.337 15.0774 140.386 15.2914 140.386 15.5792L140.355 16.8949V17.3897L140.292 19.4739C140.292 19.6283 140.303 19.8318 140.324 20.0844H140.971L141.232 20.0946H142.068C142.374 20.0946 142.688 20.07 143.008 20.0209V17.5262L143.018 16.7472V16.0209L143.008 15.8524V15.3156C143.008 14.9016 143.025 14.6489 143.06 14.5577C143.102 14.4665 143.203 14.4208 143.363 14.4208L143.572 14.431H144.251L146.507 14.3679C148.304 14.3679 149.202 14.5117 149.202 14.7994V15.5468L149.212 15.7994L149.202 16.3468V17.9784L149.254 24.6942C149.254 24.8065 149.247 24.9539 149.233 25.1363V25.6416C149.233 25.8661 149.24 26.1609 149.254 26.5258L149.255 26.7685Z" fill="#A4161A"/>
<path d="M156.566 22.3685C156.566 22.3753 156.563 22.3928 156.556 22.4211V22.4526C156.528 22.7474 156.514 23.0772 156.514 23.4421C156.514 23.807 156.542 24.193 156.598 24.6C156.661 25.007 156.758 25.414 156.89 25.8211C157.03 26.2281 157.242 26.5579 157.528 26.8105C157.834 27.0772 158.175 27.2105 158.551 27.2105C158.934 27.2105 159.254 27.1579 159.512 27.0527C159.777 26.9403 159.996 26.8 160.17 26.6316C160.351 26.4632 160.508 26.2351 160.64 25.9474C160.975 25.1825 161.142 23.9965 161.142 22.3895C161.142 20.7544 160.954 19.6105 160.578 18.9579C160.209 18.2982 159.648 17.9684 158.896 17.9684C158.52 17.9684 158.189 18.0597 157.904 18.2421C157.625 18.4246 157.413 18.614 157.266 18.8105C157.127 19.007 156.981 19.4246 156.828 20.0632C156.681 20.7018 156.608 21.2912 156.608 21.8316L156.566 22.3685ZM150.56 22.4526L150.581 22.221C150.665 21.3439 150.776 20.5684 150.915 19.8947C151.055 19.214 151.281 18.5789 151.594 17.9894C152.339 16.6912 153.377 15.7087 154.707 15.0421C156.044 14.3684 157.482 14.0316 159.021 14.0316C160.567 14.0316 161.97 14.3438 163.23 14.9684C163.983 15.3403 164.571 15.8105 164.996 16.3789C165.81 17.4035 166.347 18.3474 166.604 19.2105C166.862 20.0737 166.991 21.0702 166.991 22.2C166.991 24.7123 166.475 26.6281 165.445 27.9474L164.964 28.5895C164.317 29.3474 163.401 29.9334 162.217 30.3474C161.033 30.7544 159.86 30.9649 158.697 30.979C156.706 30.979 155.073 30.5579 153.798 29.7158C151.64 28.3053 150.56 25.8842 150.56 22.4526Z" fill="#A4161A"/>
<path d="M168.599 23.4106L168.62 19.0843V14.6948C168.634 14.688 168.7 14.6846 168.819 14.6846H169.205C169.351 14.6846 169.463 14.6776 169.539 14.6636L170.835 14.6111C171.169 14.5971 171.427 14.5901 171.608 14.5901H173.268L176.339 14.5163C176.757 14.5163 177.217 14.5339 177.718 14.5689H177.791C178.028 14.5549 178.178 14.5479 178.241 14.5479C179.633 14.5479 180.824 14.9936 181.813 15.8848C182.293 16.3129 182.673 16.8637 182.951 17.5374C183.23 18.2111 183.369 18.9093 183.369 19.6321C183.369 20.3479 183.296 20.9585 183.15 21.4637C183.004 21.969 182.816 22.3971 182.586 22.7479C181.667 24.1655 179.887 24.9936 177.248 25.2322L174.992 25.3269C174.922 27.0111 174.888 28.3199 174.888 29.2532L174.898 29.5795V30.4322C174.87 30.5303 174.818 30.597 174.741 30.6322L168.777 30.7269C168.658 30.3901 168.599 29.8497 168.599 29.1059L168.599 23.4106ZM177.739 18.8948C177.461 18.158 176.722 17.765 175.525 17.7158C175.351 17.7091 175.11 17.7057 174.804 17.7057C174.72 17.7057 174.668 18.7407 174.647 20.8109L174.627 21.6004L174.658 22.232C175.514 22.218 176.266 22.0355 176.914 21.6846C177.569 21.3337 177.896 20.6951 177.896 19.7688C177.896 19.3758 177.844 19.0843 177.739 18.8948Z" fill="#A4161A"/>
<path d="M1.56993 6.84619H195.891V38.1539H1.56993V6.84619Z" stroke="#A4161A" stroke-width="3.13987"/>
</svg>
