<svg width="44" height="44" viewBox="0 0 44 44" fill="none" xmlns="http://www.w3.org/2000/svg">
<path d="M24.146 25.0881V31.9511C24.146 32.0887 24.1719 32.2251 24.2222 32.3523C24.2726 32.4795 24.3464 32.5951 24.4394 32.6924C24.5325 32.7898 24.6429 32.867 24.7645 32.9197C24.886 32.9724 25.0163 32.9995 25.1479 32.9995H29.6759C29.8074 32.9995 29.9377 32.9724 30.0593 32.9197C30.1808 32.867 30.2913 32.7898 30.3843 32.6924C30.4773 32.5951 30.5511 32.4795 30.6015 32.3523C30.6518 32.2251 30.6777 32.0887 30.6777 31.9511V23.3947H31.9914C32.3 23.3947 32.6013 23.2956 32.8544 23.1108C33.1076 22.9261 33.3005 22.6645 33.4071 22.3614C33.5138 22.0583 33.529 21.7283 33.4507 21.4158C33.3724 21.1034 33.2045 20.8236 32.9695 20.6142L22.6966 11.4608C22.3627 11.1634 21.9385 11 21.5 11C21.0615 11 20.6374 11.1634 20.3035 11.4608L10.0307 20.6142C9.79564 20.8236 9.62763 21.1033 9.54934 21.4158C9.47104 21.7282 9.48622 22.0582 9.59283 22.3614C9.69944 22.6645 9.89234 22.9261 10.1455 23.1109C10.3987 23.2956 10.6999 23.3947 11.0086 23.3947H12.3223V31.9516C12.3223 32.2296 12.4279 32.4963 12.6158 32.6929C12.8037 32.8895 13.0585 33 13.3242 33H17.8522C18.1179 33 18.3728 32.8895 18.5606 32.6929C18.7485 32.4963 18.8541 32.2296 18.8541 31.9516V25.0886L24.146 25.0881Z" stroke="#A4161A" stroke-width="2" stroke-linecap="round" stroke-linejoin="round"/>
<path d="M26.4205 4H5.5C4.96957 4 4.46086 4.20502 4.08579 4.56995C3.71071 4.93489 3.5 5.42985 3.5 5.94595V38.0541C3.5 38.5702 3.71071 39.0651 4.08579 39.43C4.46086 39.795 4.96957 40 5.5 40H38.5C39.0304 40 39.5391 39.795 39.9142 39.43C40.2893 39.0651 40.5 38.5702 40.5 38.0541V17.6989" stroke="#A4161A" stroke-width="2" stroke-linecap="round" stroke-linejoin="round"/>
</svg>
