<svg width="44" height="44" viewBox="0 0 44 44" fill="none" xmlns="http://www.w3.org/2000/svg">
<g clip-path="url(#clip0_25540_26247)">
<path d="M41.3235 9.19386H2.67654C1.20064 9.19386 0 10.3945 0 11.8704V32.1297C0 33.6055 1.20064 34.8062 2.67654 34.8062H41.3235C42.7994 34.8062 44 33.6055 44 32.1297V11.8704C44 10.3945 42.7994 9.19386 41.3235 9.19386ZM41.9777 32.1295C41.9777 32.4903 41.6843 32.7837 41.3235 32.7837H2.67654C2.31575 32.7837 2.02228 32.4903 2.02228 32.1295V11.8704C2.02228 11.5096 2.31575 11.2161 2.67654 11.2161H41.3235C41.6843 11.2161 41.9777 11.5096 41.9777 11.8704V32.1295Z" fill="#A4161A"/>
<path d="M5.05307 16.3129V27.6871H20.6516V16.3129H5.05307ZM7.07535 18.3352H11.8413V25.6648H7.07535V18.3352ZM18.6293 25.665H13.8635V18.3353H18.6293V25.665Z" fill="#A4161A"/>
<path d="M23.3483 27.6872H38.9468V16.313H23.3483V27.6872ZM25.3705 18.3351H36.9245V25.6648H25.3705V18.3351Z" fill="#A4161A"/>
<path d="M30.0176 20.9294H27.9953V23.0706H30.0176V20.9294Z" fill="#A4161A"/>
<path d="M34.2999 20.9294H32.2776V23.0706H34.2999V20.9294Z" fill="#A4161A"/>
</g>
<defs>
<clipPath id="clip0_25540_26247">
<rect width="44" height="44" fill="white"/>
</clipPath>
</defs>
</svg>
